<?xml version="1.0" encoding="utf-8"?>
<svg viewBox="0 0 500 500" xmlns="http://www.w3.org/2000/svg">
  <clipPath id="p.0">
    <path d="m0 0l264.0 0l0 149.50131l-264.0 0l0 -149.50131z" clip-rule="nonzero"/>
  </clipPath>
  <g clip-path="url(#p.0)" transform="matrix(2.231891, 0, 0, 2.231891, 59.577244, 74.464523)">
    <path d="M 91.258 123.281 C 89.227 124.865 87.414 125.833 85.82 126.187 C 84.227 126.552 82.643 126.734 81.07 126.734 C 75.758 126.734 71.06 125.922 66.977 124.297 C 62.893 122.672 59.341 120.448 56.32 117.625 C 53.31 114.812 50.81 111.536 48.82 107.797 C 46.831 104.057 45.232 100.068 44.024 95.828 C 42.826 91.588 41.94 87.213 41.367 82.703 C 40.805 78.193 40.461 73.724 40.336 69.297 C 40.221 64.859 40.274 60.568 40.492 56.422 C 40.711 52.276 41.102 50.088 41.664 49.859 C 42.175 50.068 41.576 51.885 39.867 55.312 C 38.159 58.729 36.56 62.422 35.07 66.391 C 33.581 70.359 32.195 74.453 30.914 78.672 C 29.643 82.88 28.492 86.984 27.461 90.984 C 26.44 94.984 25.534 98.74 24.742 102.25 C 23.951 105.771 23.284 108.781 22.742 111.281 C 22.68 111.531 22.596 111.911 22.492 112.422 C 22.399 112.943 22.211 113.51 21.93 114.125 C 21.649 114.74 21.195 115.333 20.57 115.906 C 19.956 116.49 19.149 116.781 18.149 116.781 C 17.294 116.781 16.55 116.562 15.914 116.125 C 15.289 115.698 14.763 115.24 14.336 114.75 C 13.919 114.26 13.565 113.734 13.274 113.172 C 12.982 112.609 12.768 112.078 12.633 111.578 C 11.591 108.193 10.815 104.568 10.305 100.703 C 9.794 96.838 9.445 92.943 9.258 89.016 C 9.081 85.088 8.997 81.208 9.008 77.375 C 9.029 73.531 9.039 69.901 9.039 66.484 C 9.039 62.672 9.086 58.859 9.18 55.047 C 9.284 51.224 9.471 47.401 9.742 43.578 C 9.857 42.193 10.013 40.615 10.211 38.844 C 10.409 37.073 10.841 35.354 11.508 33.687 C 12.185 32.01 13.232 30.547 14.649 29.297 C 16.065 28.036 17.992 27.406 20.43 27.406 C 21.346 27.406 22.216 27.687 23.039 28.25 C 23.862 28.802 24.274 29.729 24.274 31.031 L 24.274 31.562 C 23.815 35.656 23.404 39.635 23.039 43.5 C 22.675 47.365 22.346 51.219 22.055 55.062 C 21.774 58.896 21.555 62.755 21.399 66.641 C 21.242 70.526 21.164 74.5 21.164 78.562 C 21.164 82.531 21.247 86.505 21.414 90.484 C 21.591 94.453 21.164 98.49 20.133 102.594 C 19.987 96.51 20.602 90.708 21.977 85.187 C 23.352 79.656 24.93 74.229 26.711 68.906 C 28.492 63.573 30.555 58.365 32.899 53.281 C 35.242 48.187 37.977 43.203 41.102 38.328 C 41.393 37.849 41.774 37.281 42.242 36.625 C 42.711 35.958 43.258 35.318 43.883 34.703 C 44.508 34.078 45.227 33.5 46.039 32.969 C 46.862 32.437 47.789 32.172 48.82 32.172 C 50.372 32.172 51.497 32.734 52.195 33.859 C 52.893 34.984 53.357 36.088 53.586 37.172 C 53.815 38.255 53.945 39.292 53.977 40.281 C 54.008 41.271 54.024 42.057 54.024 42.641 C 53.784 45.88 53.503 49.474 53.18 53.422 C 52.867 57.359 52.659 61.474 52.555 65.766 C 52.451 70.047 52.503 74.385 52.711 78.781 C 52.93 83.167 53.435 87.391 54.227 91.453 C 55.018 95.505 56.154 99.276 57.633 102.766 C 59.112 106.255 61.034 109.271 63.399 111.812 C 65.763 114.354 68.643 116.359 72.039 117.828 C 75.445 119.297 79.539 120.031 84.32 120.031 C 84.914 120.031 85.513 119.984 86.117 119.891 C 86.732 119.797 88.112 119.271 90.258 118.312 L 91.258 123.281 Z" fill-rule="nonzero" style="fill-rule: nonzero; stroke: rgb(255, 0, 0); paint-order: stroke; stroke-linecap: round; stroke-linejoin: round; stroke-opacity: 0; stroke-width: 0px; fill-opacity: 1;"/>
    <path d="M 75.437 54.745 C 73.207 54.745 71.533 54.223 70.413 53.183 C 69.293 52.141 68.732 50.689 68.732 48.826 C 68.732 46.963 69.461 45.407 70.918 44.159 C 72.386 42.9 74.213 42.27 76.404 42.27 C 78.377 42.27 79.972 42.751 81.191 43.713 C 82.42 44.674 83.035 46.031 83.035 47.786 C 83.035 49.917 82.341 51.612 80.953 52.87 C 79.566 54.119 77.727 54.745 75.437 54.745 Z" fill-rule="nonzero" style="fill-rule: nonzero; stroke: rgb(255, 0, 0); paint-order: stroke; stroke-linecap: round; stroke-linejoin: round; stroke-opacity: 0; stroke-width: 0px; fill-opacity: 1;"/>
    <path d="M 74.004 104.275 C 69.92 104.275 66.947 102.83 65.086 99.94 C 63.238 97.037 62.313 93.198 62.313 88.422 C 62.313 85.591 62.669 81.958 63.384 77.521 C 64.109 73.087 65.04 68.95 66.175 65.111 C 66.737 63.098 67.491 61.718 68.439 60.967 C 69.387 60.206 70.896 59.827 72.969 59.827 C 76.175 59.827 77.779 60.897 77.779 63.039 C 77.779 64.607 77.182 68.253 75.988 73.975 C 74.478 80.903 73.724 85.591 73.724 88.036 C 73.724 89.921 73.975 91.372 74.478 92.392 C 74.982 93.398 75.83 93.901 77.025 93.901 C 78.159 93.901 79.575 93.117 81.272 91.547 C 82.968 89.969 85.233 87.475 88.065 84.07 C 88.828 83.192 89.675 82.755 90.61 82.755 C 91.43 82.755 92.074 83.133 92.542 83.895 C 93.022 84.642 93.262 85.679 93.262 87.001 C 93.262 89.517 92.664 91.465 91.471 92.845 C 85.243 100.467 79.424 104.275 74.004 104.275 Z" fill-rule="nonzero" style="fill-rule: nonzero; stroke: rgb(255, 0, 0); paint-order: stroke; stroke-linecap: round; stroke-linejoin: round; stroke-opacity: 0; stroke-width: 0px; fill-opacity: 1;"/>
    <path d="M 101.739 104.196 C 95.571 104.196 90.773 102.45 87.341 98.963 C 83.912 95.464 82.198 90.85 82.198 85.127 C 82.198 80.024 83.204 75.558 85.218 71.73 C 87.23 67.891 89.84 64.934 93.049 62.864 C 96.255 60.779 99.627 59.738 103.163 59.738 C 106.615 59.738 109.302 60.762 111.222 62.811 C 113.141 64.847 114.101 67.469 114.101 70.675 C 114.101 73.322 113.515 75.558 112.345 77.383 C 111.187 79.21 109.665 80.122 107.78 80.122 C 106.586 80.122 105.626 79.843 104.9 79.279 C 104.175 78.707 103.812 77.917 103.812 76.91 C 103.812 76.476 103.877 75.979 104.005 75.417 C 104.135 74.844 104.227 74.428 104.286 74.17 C 104.602 73.235 104.76 72.357 104.76 71.538 C 104.76 70.718 104.556 70.092 104.145 69.658 C 103.736 69.213 103.151 68.991 102.389 68.991 C 100.952 68.991 99.598 69.635 98.333 70.924 C 97.081 72.209 96.075 73.955 95.313 76.155 C 94.565 78.355 94.191 80.778 94.191 83.424 C 94.191 90.728 97.367 94.381 103.723 94.381 C 106.301 94.381 109.08 93.514 112.065 91.781 C 115.061 90.049 118.004 87.452 120.895 83.986 C 121.657 83.107 122.506 82.67 123.442 82.67 C 124.262 82.67 124.905 83.05 125.372 83.81 C 125.854 84.559 126.092 85.595 126.092 86.917 C 126.092 89.305 125.496 91.255 124.302 92.764 C 121.341 96.417 117.801 99.239 113.68 101.228 C 109.56 103.207 105.579 104.196 101.739 104.196 Z" fill-rule="nonzero" style="fill-rule: nonzero; stroke: rgb(255, 0, 0); paint-order: stroke; stroke-linecap: round; stroke-linejoin: round; stroke-opacity: 0; stroke-width: 0px; fill-opacity: 1;"/>
    <path d="M 159.36 94.008 C 161.933 94.511 163.221 95.928 163.221 98.255 C 163.221 99.824 162.511 101.221 161.095 102.451 C 159.681 103.68 157.656 104.293 155.025 104.293 C 150.484 104.293 146.781 102.894 143.913 100.098 C 141.06 97.29 139.63 93.621 139.63 89.092 C 139.63 86.648 140.888 84.887 143.405 83.811 C 146.179 82.617 148.162 81.348 149.354 80.002 C 150.549 78.646 151.144 76.988 151.144 75.035 C 151.144 73.911 150.906 73.069 150.424 72.508 C 149.957 71.935 149.378 71.647 148.689 71.647 C 146.991 71.647 145.119 72.877 143.072 75.334 C 141.035 77.778 139.135 80.937 137.366 84.811 C 135.612 88.673 134.231 92.651 133.225 96.746 C 132.533 99.695 131.733 101.69 130.822 102.732 C 129.908 103.774 128.474 104.293 126.521 104.293 C 124.564 104.293 123.133 103.586 122.221 102.169 C 121.308 100.755 120.693 98.572 120.377 95.623 C 120.072 92.662 119.921 88.314 119.921 82.583 C 119.921 72.893 120.909 62.802 122.887 52.305 C 124.865 41.799 127.789 32.975 131.663 25.839 C 135.536 18.7 140.175 15.131 145.581 15.131 C 148.471 15.131 150.811 16.372 152.602 18.853 C 154.403 21.332 155.304 24.557 155.304 28.522 C 155.304 34.876 153.443 41.47 149.723 48.305 C 146.014 55.126 139.977 63.094 131.611 72.21 C 131.423 75.486 131.329 78.848 131.329 82.301 C 134.348 74.438 137.807 68.732 141.702 65.189 C 145.611 61.631 149.26 59.854 152.654 59.854 C 155.802 59.854 158.336 60.923 160.255 63.064 C 162.172 65.195 163.132 67.831 163.132 70.98 C 163.132 74.445 162.249 77.621 160.482 80.51 C 158.727 83.402 155.707 85.982 151.428 88.252 C 151.812 90.135 152.584 91.438 153.742 92.164 C 154.9 92.891 156.775 93.505 159.36 94.008 Z M 143.598 24.468 C 142.463 24.468 141.205 26.09 139.824 29.331 C 138.444 32.572 137.105 36.942 135.804 42.442 C 134.518 47.941 133.466 53.932 132.644 60.414 C 136.553 55.827 139.779 50.832 142.317 45.425 C 144.867 40.007 146.142 35.101 146.142 30.699 C 146.142 28.686 145.92 27.147 145.475 26.082 C 145.043 25.007 144.417 24.468 143.598 24.468 Z" fill-rule="nonzero" style="fill-rule: nonzero; stroke: rgb(255, 0, 0); paint-order: stroke; stroke-linecap: round; stroke-linejoin: round; stroke-opacity: 0; stroke-width: 0px; fill-opacity: 1;"/>
  </g>
</svg>